<?xml version="1.0" encoding="UTF-8" standalone="no"?>
<!-- Created with Inkscape (http://www.inkscape.org/) -->

<svg
   xmlns:dc="http://purl.org/dc/elements/1.1/"
   xmlns:cc="http://creativecommons.org/ns#"
   xmlns:rdf="http://www.w3.org/1999/02/22-rdf-syntax-ns#"
   xmlns:svg="http://www.w3.org/2000/svg"
   xmlns="http://www.w3.org/2000/svg"
   xmlns:xlink="http://www.w3.org/1999/xlink"
   xmlns:sodipodi="http://sodipodi.sourceforge.net/DTD/sodipodi-0.dtd"
   xmlns:inkscape="http://www.inkscape.org/namespaces/inkscape"
   version="1.1"
   width="400.31415"
   height="198.75439"
   id="svg2"
   xml:space="preserve"
   inkscape:version="0.48.2 r9819"
   sodipodi:docname="logo_cyneticmonkey_standard.svg"><sodipodi:namedview
     pagecolor="#ffffff"
     bordercolor="#666666"
     borderopacity="1"
     objecttolerance="10"
     gridtolerance="10"
     guidetolerance="10"
     inkscape:pageopacity="0"
     inkscape:pageshadow="2"
     inkscape:window-width="1226"
     inkscape:window-height="748"
     id="namedview3373"
     showgrid="false"
     inkscape:zoom="2.3769207"
     inkscape:cx="216.03712"
     inkscape:cy="101.73791"
     inkscape:window-x="0"
     inkscape:window-y="0"
     inkscape:window-maximized="0"
     inkscape:current-layer="svg2"
     fit-margin-top="0"
     fit-margin-left="0"
     fit-margin-right="0"
     fit-margin-bottom="0"
     borderlayer="false" /><metadata
     id="metadata8"><rdf:RDF><cc:Work
         rdf:about=""><dc:format>image/svg+xml</dc:format><dc:type
           rdf:resource="http://purl.org/dc/dcmitype/StillImage" /></cc:Work></rdf:RDF></metadata><defs
     id="defs6"><clipPath
       id="clipPath16"><path
         d="m 0,127.56 184.25,0 L 184.25,0 0,0 0,127.56 z"
         inkscape:connector-curvature="0"
         id="path18" /></clipPath><clipPath
       id="clipPath28"><path
         d="m 91.54,103.313 0,-0.006 -0.002,0 0,0.006 -53.215,0 c -3.476,0 -6.296,-2.821 -6.296,-6.297 l 0,0 0,-14.3 c 0.073,-0.09 0.132,-0.218 0.173,-0.393 l 0,0 c 0.422,-1.792 1.846,-3.998 4.088,-5.162 l 0,0 c 1.33,-0.909 3.452,-1.817 5.989,-1.188 l 0,0 c 3.607,0.896 6.06,3.348 8.287,8.149 l 0,0 c 2.876,6.205 4.099,11.029 11.532,12.505 l 0,0 c 3.549,0.705 7.317,-0.721 10.069,-2.371 l 0,0 c 0.078,-0.041 0.156,-0.081 0.245,-0.133 l 0,0 c 2.036,-1.175 2.976,-2.037 4.014,-2.951 l 0,0 c 1.04,-0.915 0.933,-1.412 3.686,-1.248 l 0,0 c 0.24,0.016 0.48,0.023 0.721,0.027 l 0,0 c 2.291,0.094 6.444,0.172 8.202,0.207 l 0,0 c 3.815,0.072 7.284,0.434 10.499,2.177 l 0,0 c 2.475,1.342 5.135,1.919 8.188,1.773 l 0,0 c 0.156,-0.008 0.308,-0.011 0.455,-0.011 l 0,0 c 2.729,0 3.972,1.248 6.24,2.46 l 0,0 c 4.103,2.195 5.405,1.603 7.812,0.59 l 0,0 c 3.069,-1.295 5.54,-2.759 6.694,-3.787 l 0,0 c 1.154,-1.032 2.369,-2.133 2.69,-2.427 l 0,0 c 0.32,-0.292 0.452,-0.452 0.552,-0.852 l 0,0 c 0.055,-0.218 0.117,-0.573 0.069,-0.85 l 0,0 c -0.024,-0.588 -1.047,-1.374 -1.297,-2.037 l 0,0 c -0.334,-0.88 0.17,-1.46 0.577,-2.12 l 0,0 c 0.409,-0.662 2.575,-3.435 3.157,-4.197 l 0,0 c 0.582,-0.765 0.507,-1.338 0.164,-1.549 l 0,0 c -0.445,-0.275 -0.945,-0.567 -0.945,-0.567 l 0,0 c 0,0 -0.793,-0.941 -1.475,-1.616 l 0,0 c -0.684,-0.676 -2.029,-1.756 -3.623,-2.458 l 0,0 c -1.592,-0.703 -2.883,0.289 -3.303,0.772 l 0,0 c -0.419,0.48 -2.594,2.314 -2.594,2.314 l 0,0 c 0,0 -0.207,-0.179 -0.796,-0.521 l 0,0 c 0.165,-0.438 0.361,-0.902 0.601,-1.418 l 0,0 c 1.66,-3.55 2.715,-5.341 3.297,-6.106 l 0,0 c 0.582,-0.763 1.26,-1.445 2.862,-1.917 l 0,0 c 1.601,-0.473 10.629,-2.459 12.855,-3.067 l 0,0 c 2.227,-0.607 4.254,-1.472 5.406,-3.18 l 0,0 c 0.121,-0.181 0.244,-0.368 0.365,-0.557 l 0,0 c 0.978,-1.318 2.489,-3.173 3.57,-4.499 l 0,0 0,40.508 c 0,3.476 -2.819,6.297 -6.296,6.297 l 0,0 -53.217,0 z M 61.745,94.036 C 61.3,93.929 60.854,93.793 60.409,93.604 l 0,0 C 56.808,92.069 55.616,89.745 52.437,83.185 l 0,0 c -1.836,-3.783 -4.914,-8.657 -9.828,-9.359 l 0,0 c -3.6,-0.514 -6.803,0.581 -8.893,2.34 l 0,0 c -0.573,0.483 -1.162,1.082 -1.689,1.722 l 0,0 0,-25.139 0.021,-0.169 c 0,-5.739 2.312,-9.071 8.052,-8.237 l 0,0 c 0.307,0.044 0.581,0.072 0.835,0.094 l 0,0 c 2.963,0.498 6.281,0.952 9.884,1.353 l 0,0 c -0.404,1.893 -1.188,3.888 -1.736,5.343 l 0,0 c -0.433,1.154 -1.323,3.069 0.758,3.538 l 0,0 c 1.877,0.423 4.748,2.522 6.962,4.358 l 0,0 c 2.217,1.834 4.382,3.442 6.391,4.435 l 0,0 c 1.221,0.604 2.26,2.657 2.598,3.35 l 0,0 c 0.984,2.014 2.035,4.237 1.988,4.253 l 0,0 c -1.15,0.345 -4.453,-4.02 -5.244,-4.661 l 0,0 c -0.845,-0.687 -2.256,-1.565 -3.384,-2.02 l 0,0 c -1.575,-0.917 -2.864,-1.398 -5.093,-2.2 l 0,0 C 53.851,62.109 53.644,62.04 53.437,61.973 l 0,0 c -1.809,-0.74 -4.323,-1.614 -6.241,-2.432 l 0,0 C 44.6,58.433 43.32,57.641 42.075,56.372 l 0,0 c -1.246,-1.269 -2.227,-3.307 -2.517,-4.023 l 0,0 c -0.614,-1.503 -0.993,-2.38 -1.816,-2.458 l 0,0 c -0.821,-0.079 -2.018,0.642 -1.571,1.557 l 0,0 c 0.578,1.177 1.242,2.943 1.696,4.13 l 0,0 c 0.722,1.893 0.718,3.068 0.893,4.368 l 0,0 c 0.133,0.977 1.312,1.812 3.044,2.002 l 0,0 c 1.77,0.194 3.029,1.759 5.255,3.433 l 0,0 c 2.227,1.676 4.971,3.162 6.688,4.144 l 0,0 c 0.967,0.555 1.871,1.127 2.781,1.889 l 0,0 c 1.529,1.631 4.038,3.497 5.668,7.287 l 0,0 c 1.649,3.831 2.936,6.967 6.488,8.778 l 0,0 c 1.918,0.979 3.672,1.041 3.368,2.048 l 0,0 c -0.348,1.143 -2.363,3.08 -4.154,3.754 l 0,0 c -1.125,0.422 -2.956,0.871 -4.712,0.871 l 0,0 c -0.491,0 -0.978,-0.035 -1.441,-0.116 m 20.428,-20.1 C 81.755,73.908 81.532,73.869 81.31,73.572 l 0,0 c -0.152,-0.254 -0.313,-0.594 -0.501,-1.055 l 0,0 c -1.658,-4.072 -4.637,-6.72 -6.513,-8.361 l 0,0 c -2.202,-1.924 -3.211,-2.77 -4.08,-3.65 l 0,0 C 69.36,59.64 67.893,58.48 66.431,57.814 l 0,0 C 63.51,56.488 59.259,54.875 57.374,53.763 l 0,0 c -2.51,-1.476 -3.47,-2.487 -3.642,-3.652 l 0,0 c -0.119,-0.802 -0.131,-2.555 -0.04,-4.017 l 0,0 c 10.88,1.086 24.033,1.719 37.846,1.719 l 0,0 0,0.006 0.002,0 0,-0.006 c 17.787,0 34.481,-1.05 46.633,-2.765 l 0,0 c -0.575,0.794 -1.063,1.541 -1.244,1.856 l 0,0 c -0.486,0.848 -1.307,2.08 -2.569,3.524 l 0,0 c -1.259,1.445 -2.307,2.061 -3.74,2.341 l 0,0 c -1.431,0.282 -2.563,0.993 -4.382,2.205 l 0,0 c -1.821,1.211 -5.051,3.064 -6.273,3.782 l 0,0 c -1.22,0.719 -2.896,2.734 -6.144,5.582 l 0,0 c -3.251,2.849 -5.164,4.067 -5.164,4.067 l 0,0 c -0.004,0.007 -0.012,0.013 -0.017,0.018 l 0,0 c -1.881,-1.279 -4.139,-2.486 -6.606,-2.946 l 0,0 C 97.835,64.696 93.378,64.883 90.265,67.09 l 0,0 c -2.132,1.213 -4.778,4.469 -5.607,5.464 l 0,0 c -0.843,1.008 -1.737,1.385 -2.385,1.385 l 0,0 c -0.034,0 -0.067,-10e-4 -0.1,-0.003 m 44.813,-12.143 c 0,0 0.601,-0.494 1.962,-1.764 l 0,0 c 1.366,-1.272 4.328,-3.015 6.301,-4.689 l 0,0 c 1.969,-1.675 2.641,-2.445 3.554,-3.684 l 0,0 c 0.911,-1.238 5.051,-6.427 5.712,-7.378 l 0,0 c 0.013,-0.02 0.028,-0.04 0.042,-0.062 l 0,0 c 4.327,-0.034 6.252,2.826 6.457,7.495 l 0,0 c -0.013,0.057 -0.023,0.119 -0.029,0.186 l 0,0 c -0.066,0.696 -0.513,1.302 -0.937,1.849 l 0,0 -0.025,0.02 c -1.1,1.162 -5.401,4.536 -6.338,5.414 l 0,0 c -0.938,0.881 -1.744,1.026 -2.721,1.367 l 0,0 c -2.154,0.33 -6.022,0.865 -8.908,1.072 l 0,0 c -1.68,0.121 -3.815,0.346 -5.359,0.448 l 0,0 c 0.05,-0.045 0.183,-0.182 0.289,-0.274"
         inkscape:connector-curvature="0"
         id="path30" /></clipPath><radialGradient
       cx="0"
       cy="0"
       r="1"
       fx="0"
       fy="0"
       id="radialGradient36"
       gradientUnits="userSpaceOnUse"
       gradientTransform="matrix(0,142.52483,142.52483,0,88.995606,11.227539)"
       spreadMethod="pad"><stop
         id="stop38"
         style="stop-color:#85bb4d;stop-opacity:1"
         offset="0" /><stop
         id="stop40"
         style="stop-color:#2c9d39;stop-opacity:1"
         offset="1" /></radialGradient><clipPath
       id="clipPath48"><path
         d="m 91.54,103.313 0,-0.006 -0.002,0 0,0.006 -53.215,0 c -3.476,0 -6.296,-2.821 -6.296,-6.297 l 0,0 0,-14.3 c 0.073,-0.09 0.132,-0.218 0.173,-0.393 l 0,0 c 0.422,-1.792 1.846,-3.998 4.088,-5.162 l 0,0 c 1.33,-0.909 3.452,-1.817 5.989,-1.188 l 0,0 c 3.607,0.896 6.06,3.348 8.287,8.149 l 0,0 c 2.876,6.205 4.099,11.029 11.532,12.505 l 0,0 c 3.549,0.705 7.317,-0.721 10.069,-2.371 l 0,0 c 0.078,-0.041 0.156,-0.081 0.245,-0.133 l 0,0 c 2.036,-1.175 2.976,-2.037 4.014,-2.951 l 0,0 c 1.04,-0.915 0.933,-1.412 3.686,-1.248 l 0,0 c 0.24,0.016 0.48,0.023 0.721,0.027 l 0,0 c 2.291,0.094 6.444,0.172 8.202,0.207 l 0,0 c 3.815,0.072 7.284,0.434 10.499,2.177 l 0,0 c 2.475,1.342 5.135,1.919 8.188,1.773 l 0,0 c 0.156,-0.008 0.308,-0.011 0.455,-0.011 l 0,0 c 2.729,0 3.972,1.248 6.24,2.46 l 0,0 c 4.103,2.195 5.405,1.603 7.812,0.59 l 0,0 c 3.069,-1.295 5.54,-2.759 6.694,-3.787 l 0,0 c 1.154,-1.032 2.369,-2.133 2.69,-2.427 l 0,0 c 0.32,-0.292 0.452,-0.452 0.552,-0.852 l 0,0 c 0.055,-0.218 0.117,-0.573 0.069,-0.85 l 0,0 c -0.024,-0.588 -1.047,-1.374 -1.297,-2.037 l 0,0 c -0.334,-0.88 0.17,-1.46 0.577,-2.12 l 0,0 c 0.409,-0.662 2.575,-3.435 3.157,-4.197 l 0,0 c 0.582,-0.765 0.507,-1.338 0.164,-1.549 l 0,0 c -0.445,-0.275 -0.945,-0.567 -0.945,-0.567 l 0,0 c 0,0 -0.793,-0.941 -1.475,-1.616 l 0,0 c -0.684,-0.676 -2.029,-1.756 -3.623,-2.458 l 0,0 c -1.592,-0.703 -2.883,0.289 -3.303,0.772 l 0,0 c -0.419,0.48 -2.594,2.314 -2.594,2.314 l 0,0 c 0,0 -0.207,-0.179 -0.796,-0.521 l 0,0 c 0.165,-0.438 0.361,-0.902 0.601,-1.418 l 0,0 c 1.66,-3.55 2.715,-5.341 3.297,-6.106 l 0,0 c 0.582,-0.763 1.26,-1.445 2.862,-1.917 l 0,0 c 1.601,-0.473 10.629,-2.459 12.855,-3.067 l 0,0 c 2.227,-0.607 4.254,-1.472 5.406,-3.18 l 0,0 c 0.121,-0.181 0.244,-0.368 0.365,-0.557 l 0,0 c 0.978,-1.318 2.49,-3.173 3.57,-4.499 l 0,0 0,40.508 c 0,3.476 -2.819,6.297 -6.296,6.297 l 0,0 -53.217,0 z M 61.745,94.036 C 61.3,93.929 60.854,93.793 60.409,93.604 l 0,0 C 56.808,92.069 55.616,89.745 52.437,83.185 l 0,0 c -1.836,-3.783 -4.914,-8.657 -9.828,-9.359 l 0,0 c -3.6,-0.514 -6.803,0.581 -8.893,2.34 l 0,0 c -0.573,0.483 -1.162,1.082 -1.689,1.722 l 0,0 0,-25.139 0.021,-0.169 c 0,-5.739 2.312,-9.071 8.052,-8.237 l 0,0 c 0.307,0.044 0.581,0.072 0.835,0.094 l 0,0 c 2.963,0.498 6.281,0.951 9.884,1.353 l 0,0 c -0.404,1.893 -1.188,3.888 -1.736,5.343 l 0,0 c -0.433,1.154 -1.323,3.069 0.758,3.538 l 0,0 c 1.877,0.423 4.748,2.522 6.962,4.358 l 0,0 c 2.217,1.834 4.382,3.442 6.391,4.435 l 0,0 c 1.221,0.604 2.26,2.657 2.598,3.35 l 0,0 c 0.984,2.014 2.035,4.237 1.988,4.253 l 0,0 c -1.15,0.345 -4.453,-4.02 -5.244,-4.661 l 0,0 c -0.845,-0.687 -2.256,-1.565 -3.384,-2.02 l 0,0 c -1.575,-0.917 -2.864,-1.398 -5.093,-2.2 l 0,0 C 53.851,62.109 53.644,62.04 53.437,61.973 l 0,0 c -1.809,-0.74 -4.323,-1.614 -6.241,-2.432 l 0,0 C 44.6,58.433 43.32,57.641 42.075,56.372 l 0,0 c -1.246,-1.269 -2.227,-3.307 -2.517,-4.023 l 0,0 c -0.614,-1.503 -0.993,-2.38 -1.816,-2.458 l 0,0 c -0.821,-0.079 -2.018,0.642 -1.571,1.557 l 0,0 c 0.578,1.177 1.242,2.943 1.696,4.13 l 0,0 c 0.722,1.893 0.718,3.068 0.893,4.368 l 0,0 c 0.133,0.977 1.312,1.812 3.044,2.002 l 0,0 c 1.77,0.194 3.029,1.759 5.255,3.433 l 0,0 c 2.227,1.676 4.971,3.162 6.688,4.144 l 0,0 c 0.967,0.555 1.871,1.127 2.781,1.889 l 0,0 c 1.529,1.631 4.038,3.497 5.668,7.287 l 0,0 c 1.649,3.831 2.936,6.967 6.488,8.778 l 0,0 c 1.918,0.979 3.672,1.041 3.368,2.048 l 0,0 c -0.348,1.143 -2.363,3.08 -4.154,3.754 l 0,0 c -1.125,0.421 -2.956,0.871 -4.711,0.871 l 0,0 c -0.492,0 -0.979,-0.035 -1.442,-0.116 m 20.428,-20.1 C 81.755,73.908 81.532,73.869 81.31,73.572 l 0,0 c -0.152,-0.254 -0.313,-0.594 -0.501,-1.055 l 0,0 c -1.658,-4.072 -4.637,-6.72 -6.513,-8.361 l 0,0 c -2.202,-1.924 -3.211,-2.77 -4.08,-3.65 l 0,0 C 69.36,59.64 67.893,58.48 66.431,57.814 l 0,0 C 63.51,56.488 59.259,54.875 57.374,53.763 l 0,0 c -2.51,-1.476 -3.47,-2.487 -3.642,-3.652 l 0,0 c -0.119,-0.802 -0.131,-2.555 -0.04,-4.018 l 0,0 c 10.88,1.087 24.033,1.72 37.846,1.72 l 0,0 0,0.006 0.002,0 0,-0.006 c 17.787,0 34.481,-1.05 46.633,-2.765 l 0,0 c -0.575,0.795 -1.063,1.54 -1.244,1.856 l 0,0 c -0.486,0.848 -1.307,2.08 -2.569,3.524 l 0,0 c -1.259,1.445 -2.307,2.061 -3.74,2.341 l 0,0 c -1.431,0.282 -2.563,0.993 -4.382,2.205 l 0,0 c -1.821,1.211 -5.051,3.064 -6.273,3.782 l 0,0 c -1.22,0.719 -2.896,2.734 -6.144,5.582 l 0,0 c -3.251,2.849 -5.164,4.067 -5.164,4.067 l 0,0 c -0.004,0.007 -0.012,0.013 -0.017,0.018 l 0,0 c -1.881,-1.279 -4.139,-2.486 -6.606,-2.946 l 0,0 C 97.835,64.696 93.378,64.883 90.265,67.09 l 0,0 c -2.132,1.213 -4.778,4.469 -5.607,5.464 l 0,0 c -0.843,1.008 -1.738,1.385 -2.384,1.385 l 0,0 c -0.035,0 -0.068,-10e-4 -0.101,-0.003 m 44.813,-12.143 c 0,0 0.601,-0.494 1.962,-1.764 l 0,0 c 1.366,-1.272 4.328,-3.015 6.301,-4.689 l 0,0 c 1.969,-1.675 2.641,-2.445 3.554,-3.684 l 0,0 c 0.911,-1.238 5.051,-6.427 5.712,-7.378 l 0,0 c 0.013,-0.019 0.028,-0.04 0.042,-0.062 l 0,0 c 4.327,-0.034 6.251,2.826 6.457,7.495 l 0,0 c -0.013,0.057 -0.023,0.119 -0.029,0.186 l 0,0 c -0.066,0.696 -0.513,1.302 -0.937,1.849 l 0,0 -0.025,0.02 c -1.1,1.162 -5.401,4.536 -6.338,5.414 l 0,0 c -0.938,0.881 -1.744,1.026 -2.721,1.367 l 0,0 c -2.154,0.33 -6.022,0.865 -8.908,1.072 l 0,0 c -1.68,0.121 -3.815,0.346 -5.359,0.448 l 0,0 c 0.05,-0.045 0.183,-0.182 0.289,-0.274"
         inkscape:connector-curvature="0"
         id="path50" /></clipPath><clipPath
       id="clipPath56"><path
         d="m 80.1846,139.971 148.0194,0 0,-161.6282 -148.0194,0 0,161.6282 z"
         inkscape:connector-curvature="0"
         id="path58" /></clipPath><clipPath
       id="clipPath60"><path
         d="m 228.204,59.156 c 0,44.633 -33.137,80.815 -74.012,80.815 -40.873,0 -74.007,-36.182 -74.007,-80.815 0,-44.631 33.134,-80.813 74.007,-80.813 40.875,0 74.012,36.182 74.012,80.813"
         inkscape:connector-curvature="0"
         id="path62" /></clipPath><linearGradient
       x1="0"
       y1="0"
       x2="1"
       y2="0"
       id="linearGradient64"
       gradientUnits="userSpaceOnUse"
       gradientTransform="matrix(46.650894,-61.261993,-61.261993,-46.650894,119.27832,105.00781)"
       spreadMethod="pad"><stop
         id="stop66"
         style="stop-color:#b7cb17;stop-opacity:1"
         offset="0" /><stop
         id="stop68"
         style="stop-color:#009051;stop-opacity:1"
         offset="1" /></linearGradient><clipPath
       id="clipPath88"><path
         d="m -43.9541,72.4863 264.6601,0 0,-100.5302 -264.6601,0 0,100.5302 z"
         inkscape:connector-curvature="0"
         id="path90" /></clipPath><clipPath
       id="clipPath92"><path
         d="m 220.706,22.222 c 0,-27.763 -59.246,-50.266 -132.33,-50.266 -73.084,0 -132.33,22.503 -132.33,50.266 0,27.76 59.246,50.264 132.33,50.264 73.084,0 132.33,-22.504 132.33,-50.264"
         inkscape:connector-curvature="0"
         id="path94" /></clipPath><radialGradient
       cx="0"
       cy="0"
       r="1"
       fx="0"
       fy="0"
       id="radialGradient96"
       gradientUnits="userSpaceOnUse"
       gradientTransform="matrix(99.711472,-18.455582,-18.455582,-99.711472,38.675293,81.589355)"
       spreadMethod="pad"><stop
         id="stop98"
         style="stop-color:#dfdc00;stop-opacity:1"
         offset="0" /><stop
         id="stop100"
         style="stop-color:#aad19a;stop-opacity:1"
         offset="1" /></radialGradient><clipPath
       id="clipPath120"><path
         d="m -6.46387,133.028 82.48247,0 0,-54.987 -82.48247,0 0,54.987 z"
         inkscape:connector-curvature="0"
         id="path122" /></clipPath><clipPath
       id="clipPath124"><path
         d="m 76.019,105.534 c 0,-15.182 -18.465,-27.493 -41.241,-27.493 -22.777,0 -41.242,12.311 -41.242,27.493 0,15.185 18.465,27.494 41.242,27.494 22.776,0 41.241,-12.309 41.241,-27.494"
         inkscape:connector-curvature="0"
         id="path126" /></clipPath><radialGradient
       cx="0"
       cy="0"
       r="1"
       fx="0"
       fy="0"
       id="radialGradient128"
       gradientUnits="userSpaceOnUse"
       gradientTransform="matrix(0,45.822494,45.822494,0,33.506348,81.950195)"
       spreadMethod="pad"><stop
         id="stop130"
         style="stop-color:#e2e046;stop-opacity:1"
         offset="0" /><stop
         id="stop132"
         style="stop-color:#cceaf9;stop-opacity:1"
         offset="1" /></radialGradient><clipPath
       id="clipPath152"><path
         d="m -32.0127,134.695 97.7559,0 0,-136.63445 -97.7559,0 0,136.63445 z"
         inkscape:connector-curvature="0"
         id="path154" /></clipPath><clipPath
       id="clipPath156"><path
         d="m 65.743,66.377 c 0,-37.731 -21.883,-68.316 -48.877,-68.316 -26.994,0 -48.879,30.585 -48.879,68.316 0,37.731 21.885,68.318 48.879,68.318 26.994,0 48.877,-30.587 48.877,-68.318"
         inkscape:connector-curvature="0"
         id="path158" /></clipPath><linearGradient
       x1="0"
       y1="0"
       x2="1"
       y2="0"
       id="linearGradient160"
       gradientUnits="userSpaceOnUse"
       gradientTransform="matrix(2.5634613,-64.594757,-64.594757,-2.5634613,14.893555,116.05762)"
       spreadMethod="pad"><stop
         id="stop162"
         style="stop-color:#2c9d39;stop-opacity:1"
         offset="0" /><stop
         id="stop164"
         style="stop-color:#bf2635;stop-opacity:1"
         offset="1" /></linearGradient><clipPath
       id="clipPath184"><path
         d="m 43.9868,150.306 165.1502,0 0,-68.9906 -165.1502,0 0,68.9906 z"
         inkscape:connector-curvature="0"
         id="path186" /></clipPath><clipPath
       id="clipPath188"><path
         d="M 208.958,101.729 C 205.985,84.342 166.687,76.553 121.181,84.33 c -45.506,7.777 -79.987,28.176 -77.016,45.563 2.971,17.385 42.27,25.175 87.777,17.398 45.506,-7.777 79.987,-28.178 77.016,-45.562"
         inkscape:connector-curvature="0"
         id="path190" /></clipPath><clipPath
       id="clipPath192"><path
         d="m -32768,32767 65535,0 0,-65534 -65535,0 0,65534 z"
         inkscape:connector-curvature="0"
         id="path194" /></clipPath><linearGradient
       x1="0"
       y1="0"
       x2="1"
       y2="0"
       id="linearGradient196"
       gradientUnits="userSpaceOnUse"
       gradientTransform="matrix(53.496307,-13.494431,-13.494431,-53.496307,95.554687,123.63232)"
       spreadMethod="pad"><stop
         id="stop198"
         style="stop-color:#ffffff;stop-opacity:1"
         offset="0" /><stop
         id="stop200"
         style="stop-color:#ffffff;stop-opacity:0.78999007"
         offset="1" /></linearGradient><mask
       id="mask202"><g
         id="g204"><g
           clip-path="url(#clipPath192)"
           id="g206"><g
             id="g208"><g
               id="g210"><path
                 d="m -32768,32767 65535,0 0,-65534 -65535,0 0,65534 z"
                 inkscape:connector-curvature="0"
                 id="path212"
                 style="fill:url(#linearGradient196);stroke:none" /></g></g></g></g></mask><linearGradient
       x1="0"
       y1="0"
       x2="1"
       y2="0"
       id="linearGradient214"
       gradientUnits="userSpaceOnUse"
       gradientTransform="matrix(53.496307,-13.494431,-13.494431,-53.496307,95.554687,123.63232)"
       spreadMethod="pad"><stop
         id="stop216"
         style="stop-color:#9b5d9c;stop-opacity:1"
         offset="0" /><stop
         id="stop218"
         style="stop-color:#6a7bb5;stop-opacity:1"
         offset="1" /></linearGradient><clipPath
       id="clipPath242"><path
         d="m 60.124,63.002 138.961,0 0,-117.7481 -138.961,0 0,117.7481 z"
         inkscape:connector-curvature="0"
         id="path244" /></clipPath><clipPath
       id="clipPath246"><path
         d="m 60.124,4.129 c 0,-32.518 31.107,-58.875 69.48,-58.875 38.374,0 69.481,26.357 69.481,58.875 0,32.515 -31.107,58.873 -69.481,58.873 -38.373,0 -69.48,-26.358 -69.48,-58.873"
         inkscape:connector-curvature="0"
         id="path248" /></clipPath><linearGradient
       x1="0"
       y1="0"
       x2="1"
       y2="0"
       id="linearGradient250"
       gradientUnits="userSpaceOnUse"
       gradientTransform="matrix(53.520737,-2.0289459,-2.0289459,-53.520737,96.311523,5.3896484)"
       spreadMethod="pad"><stop
         id="stop252"
         style="stop-color:#1e428e;stop-opacity:1"
         offset="0" /><stop
         id="stop254"
         style="stop-color:#33223f;stop-opacity:1"
         offset="1" /></linearGradient><clipPath
       id="clipPath274"><path
         d="m 115.452,116.365 72.762,0 0,-101.0857 -72.762,0 0,101.0857 z"
         inkscape:connector-curvature="0"
         id="path276" /></clipPath><clipPath
       id="clipPath278"><path
         d="m 188.214,65.822 c 0,-27.915 -16.289,-50.543 -36.381,-50.543 -20.092,0 -36.381,22.628 -36.381,50.543 0,27.914 16.289,50.543 36.381,50.543 20.092,0 36.381,-22.629 36.381,-50.543"
         inkscape:connector-curvature="0"
         id="path280" /></clipPath><linearGradient
       x1="0"
       y1="0"
       x2="1"
       y2="0"
       id="linearGradient282"
       gradientUnits="userSpaceOnUse"
       gradientTransform="matrix(0.1267242,-38.174423,-38.174423,-0.1267242,151.76172,87.375977)"
       spreadMethod="pad"><stop
         id="stop284"
         style="stop-color:#009a9c;stop-opacity:1"
         offset="0" /><stop
         id="stop286"
         style="stop-color:#992781;stop-opacity:1"
         offset="1" /></linearGradient><clipPath
       id="clipPath306"><path
         d="m -6.7002,62.6367 135.2442,0 0,-83.3135 -135.2442,0 0,83.3135 z"
         inkscape:connector-curvature="0"
         id="path308" /></clipPath><clipPath
       id="clipPath310"><path
         d="m 128.544,20.98 c 0,-23.005 -30.275,-41.657 -67.623,-41.657 -37.348,0 -67.621,18.652 -67.621,41.657 0,23.006 30.273,41.657 67.621,41.657 37.348,0 67.623,-18.651 67.623,-41.657"
         inkscape:connector-curvature="0"
         id="path312" /></clipPath><linearGradient
       x1="0"
       y1="0"
       x2="1"
       y2="0"
       id="linearGradient314"
       gradientUnits="userSpaceOnUse"
       gradientTransform="matrix(72.283615,-25.888672,-25.888672,-72.2836,17.679199,36.466797)"
       spreadMethod="pad"><stop
         id="stop316"
         style="stop-color:#6a9d34;stop-opacity:1"
         offset="0" /><stop
         id="stop318"
         style="stop-color:#937156;stop-opacity:1"
         offset="0.370895" /><stop
         id="stop320"
         style="stop-color:#a7418c;stop-opacity:1"
         offset="1" /></linearGradient><radialGradient
       inkscape:collect="always"
       xlink:href="#radialGradient36"
       id="radialGradient3377"
       gradientUnits="userSpaceOnUse"
       gradientTransform="matrix(0,142.52483,142.52483,0,88.995606,11.227539)"
       spreadMethod="pad"
       cx="0"
       cy="0"
       fx="0"
       fy="0"
       r="1" /><linearGradient
       inkscape:collect="always"
       xlink:href="#linearGradient64"
       id="linearGradient3379"
       gradientUnits="userSpaceOnUse"
       gradientTransform="matrix(46.650894,-61.261993,-61.261993,-46.650894,119.27832,105.00781)"
       spreadMethod="pad"
       x1="0"
       y1="0"
       x2="1"
       y2="0" /><radialGradient
       inkscape:collect="always"
       xlink:href="#radialGradient96"
       id="radialGradient3381"
       gradientUnits="userSpaceOnUse"
       gradientTransform="matrix(99.711472,-18.455582,-18.455582,-99.711472,38.675293,81.589355)"
       spreadMethod="pad"
       cx="0"
       cy="0"
       fx="0"
       fy="0"
       r="1" /><radialGradient
       inkscape:collect="always"
       xlink:href="#radialGradient128"
       id="radialGradient3383"
       gradientUnits="userSpaceOnUse"
       gradientTransform="matrix(0,45.822494,45.822494,0,33.506348,81.950195)"
       spreadMethod="pad"
       cx="0"
       cy="0"
       fx="0"
       fy="0"
       r="1" /><linearGradient
       inkscape:collect="always"
       xlink:href="#linearGradient160"
       id="linearGradient3385"
       gradientUnits="userSpaceOnUse"
       gradientTransform="matrix(2.5634613,-64.594757,-64.594757,-2.5634613,14.893555,116.05762)"
       spreadMethod="pad"
       x1="0"
       y1="0"
       x2="1"
       y2="0" /><linearGradient
       inkscape:collect="always"
       xlink:href="#linearGradient214"
       id="linearGradient3387"
       gradientUnits="userSpaceOnUse"
       gradientTransform="matrix(53.496307,-13.494431,-13.494431,-53.496307,95.554687,123.63232)"
       spreadMethod="pad"
       x1="0"
       y1="0"
       x2="1"
       y2="0" /><linearGradient
       inkscape:collect="always"
       xlink:href="#linearGradient250"
       id="linearGradient3389"
       gradientUnits="userSpaceOnUse"
       gradientTransform="matrix(53.520737,-2.0289459,-2.0289459,-53.520737,96.311523,5.3896484)"
       spreadMethod="pad"
       x1="0"
       y1="0"
       x2="1"
       y2="0" /><linearGradient
       inkscape:collect="always"
       xlink:href="#linearGradient282"
       id="linearGradient3391"
       gradientUnits="userSpaceOnUse"
       gradientTransform="matrix(0.1267242,-38.174423,-38.174423,-0.1267242,151.76172,87.375977)"
       spreadMethod="pad"
       x1="0"
       y1="0"
       x2="1"
       y2="0" /><linearGradient
       inkscape:collect="always"
       xlink:href="#linearGradient314"
       id="linearGradient3393"
       gradientUnits="userSpaceOnUse"
       gradientTransform="matrix(72.283615,-25.888672,-25.888672,-72.2836,17.679199,36.466797)"
       spreadMethod="pad"
       x1="0"
       y1="0"
       x2="1"
       y2="0" /></defs><g
     transform="matrix(3.3631931,0,0,-3.3631721,-107.70996,347.4594)"
     id="g10"><g
   id="g12"><g
     clip-path="url(#clipPath16)"
     id="g14"><g
       transform="translate(147.3291,83.1025)"
       id="g20"><path
         d="m 0,0 c 0,15.366 -12.693,17.444 -17.443,17.444 l -58.643,0 c -20.34,0 -27.91,-1.929 -30.285,-9.502 -2.129,-6.785 -7.779,-8.118 -8.932,-8.322 l 0,-4.853 c 0.489,-0.738 1.082,-1.895 2.063,-4.737 1.097,-3.189 0.574,-15.267 0.574,-21.437 0,-6.17 6.799,-5.072 10.406,-4.916 3.26,0.142 5.266,-0.819 5.623,-1.006 0.981,0.109 1.981,0.217 3.002,0.318 0.217,2.922 19.041,5.283 42.24,5.283 22.395,0 40.766,-3.445 42.207,-6.327 1.391,-0.196 2.737,-0.398 4.004,-0.611 0.254,-0.022 0.528,-0.05 0.832,-0.094 0.575,-0.083 1.104,-0.114 1.61,-0.116 0.076,0.422 0.623,3.086 2.437,4.832 1.846,1.779 3.455,2.69 3.985,2.652 0.013,0.286 0.023,0.573 0.023,0.87 l 0.022,0.153 0,3.819 C 2.1,-24.182 0,-15.173 0,0"
         inkscape:connector-curvature="0"
         id="path22"
         style="fill:#ffffff;fill-opacity:1;fill-rule:nonzero;stroke:none" /></g></g></g><g
   id="g24"><g
     clip-path="url(#clipPath28)"
     id="g26"><g
       id="g32"><g
         id="g34"><path
           d="m 91.54,103.313 0,-0.006 -0.002,0 0,0.006 -53.215,0 c -3.476,0 -6.296,-2.821 -6.296,-6.297 l 0,0 0,-14.3 c 0.073,-0.09 0.132,-0.218 0.173,-0.393 l 0,0 c 0.422,-1.792 1.846,-3.998 4.088,-5.162 l 0,0 c 1.33,-0.909 3.452,-1.817 5.989,-1.188 l 0,0 c 3.607,0.896 6.06,3.348 8.287,8.149 l 0,0 c 2.876,6.205 4.099,11.029 11.532,12.505 l 0,0 c 3.549,0.705 7.317,-0.721 10.069,-2.371 l 0,0 c 0.078,-0.041 0.156,-0.081 0.245,-0.133 l 0,0 c 2.036,-1.175 2.976,-2.037 4.014,-2.951 l 0,0 c 1.04,-0.915 0.933,-1.412 3.686,-1.248 l 0,0 c 0.24,0.016 0.48,0.023 0.721,0.027 l 0,0 c 2.291,0.094 6.444,0.172 8.202,0.207 l 0,0 c 3.815,0.072 7.284,0.434 10.499,2.177 l 0,0 c 2.475,1.342 5.135,1.919 8.188,1.773 l 0,0 c 0.156,-0.008 0.308,-0.011 0.455,-0.011 l 0,0 c 2.729,0 3.972,1.248 6.24,2.46 l 0,0 c 4.103,2.195 5.405,1.603 7.812,0.59 l 0,0 c 3.069,-1.295 5.54,-2.759 6.694,-3.787 l 0,0 c 1.154,-1.032 2.369,-2.133 2.69,-2.427 l 0,0 c 0.32,-0.292 0.452,-0.452 0.552,-0.852 l 0,0 c 0.055,-0.218 0.117,-0.573 0.069,-0.85 l 0,0 c -0.024,-0.588 -1.047,-1.374 -1.297,-2.037 l 0,0 c -0.334,-0.88 0.17,-1.46 0.577,-2.12 l 0,0 c 0.409,-0.662 2.575,-3.435 3.157,-4.197 l 0,0 c 0.582,-0.765 0.507,-1.338 0.164,-1.549 l 0,0 c -0.445,-0.275 -0.945,-0.567 -0.945,-0.567 l 0,0 c 0,0 -0.793,-0.941 -1.475,-1.616 l 0,0 c -0.684,-0.676 -2.029,-1.756 -3.623,-2.458 l 0,0 c -1.592,-0.703 -2.883,0.289 -3.303,0.772 l 0,0 c -0.419,0.48 -2.594,2.314 -2.594,2.314 l 0,0 c 0,0 -0.207,-0.179 -0.796,-0.521 l 0,0 c 0.165,-0.438 0.361,-0.902 0.601,-1.418 l 0,0 c 1.66,-3.55 2.715,-5.341 3.297,-6.106 l 0,0 c 0.582,-0.763 1.26,-1.445 2.862,-1.917 l 0,0 c 1.601,-0.473 10.629,-2.459 12.855,-3.067 l 0,0 c 2.227,-0.607 4.254,-1.472 5.406,-3.18 l 0,0 c 0.121,-0.181 0.244,-0.368 0.365,-0.557 l 0,0 c 0.978,-1.318 2.489,-3.173 3.57,-4.499 l 0,0 0,40.508 c 0,3.476 -2.819,6.297 -6.296,6.297 l 0,0 -53.217,0 z M 61.745,94.036 C 61.3,93.929 60.854,93.793 60.409,93.604 l 0,0 C 56.808,92.069 55.616,89.745 52.437,83.185 l 0,0 c -1.836,-3.783 -4.914,-8.657 -9.828,-9.359 l 0,0 c -3.6,-0.514 -6.803,0.581 -8.893,2.34 l 0,0 c -0.573,0.483 -1.162,1.082 -1.689,1.722 l 0,0 0,-25.139 0.021,-0.169 c 0,-5.739 2.312,-9.071 8.052,-8.237 l 0,0 c 0.307,0.044 0.581,0.072 0.835,0.094 l 0,0 c 2.963,0.498 6.281,0.952 9.884,1.353 l 0,0 c -0.404,1.893 -1.188,3.888 -1.736,5.343 l 0,0 c -0.433,1.154 -1.323,3.069 0.758,3.538 l 0,0 c 1.877,0.423 4.748,2.522 6.962,4.358 l 0,0 c 2.217,1.834 4.382,3.442 6.391,4.435 l 0,0 c 1.221,0.604 2.26,2.657 2.598,3.35 l 0,0 c 0.984,2.014 2.035,4.237 1.988,4.253 l 0,0 c -1.15,0.345 -4.453,-4.02 -5.244,-4.661 l 0,0 c -0.845,-0.687 -2.256,-1.565 -3.384,-2.02 l 0,0 c -1.575,-0.917 -2.864,-1.398 -5.093,-2.2 l 0,0 C 53.851,62.109 53.644,62.04 53.437,61.973 l 0,0 c -1.809,-0.74 -4.323,-1.614 -6.241,-2.432 l 0,0 C 44.6,58.433 43.32,57.641 42.075,56.372 l 0,0 c -1.246,-1.269 -2.227,-3.307 -2.517,-4.023 l 0,0 c -0.614,-1.503 -0.993,-2.38 -1.816,-2.458 l 0,0 c -0.821,-0.079 -2.018,0.642 -1.571,1.557 l 0,0 c 0.578,1.177 1.242,2.943 1.696,4.13 l 0,0 c 0.722,1.893 0.718,3.068 0.893,4.368 l 0,0 c 0.133,0.977 1.312,1.812 3.044,2.002 l 0,0 c 1.77,0.194 3.029,1.759 5.255,3.433 l 0,0 c 2.227,1.676 4.971,3.162 6.688,4.144 l 0,0 c 0.967,0.555 1.871,1.127 2.781,1.889 l 0,0 c 1.529,1.631 4.038,3.497 5.668,7.287 l 0,0 c 1.649,3.831 2.936,6.967 6.488,8.778 l 0,0 c 1.918,0.979 3.672,1.041 3.368,2.048 l 0,0 c -0.348,1.143 -2.363,3.08 -4.154,3.754 l 0,0 c -1.125,0.422 -2.956,0.871 -4.712,0.871 l 0,0 c -0.491,0 -0.978,-0.035 -1.441,-0.116 m 20.428,-20.1 C 81.755,73.908 81.532,73.869 81.31,73.572 l 0,0 c -0.152,-0.254 -0.313,-0.594 -0.501,-1.055 l 0,0 c -1.658,-4.072 -4.637,-6.72 -6.513,-8.361 l 0,0 c -2.202,-1.924 -3.211,-2.77 -4.08,-3.65 l 0,0 C 69.36,59.64 67.893,58.48 66.431,57.814 l 0,0 C 63.51,56.488 59.259,54.875 57.374,53.763 l 0,0 c -2.51,-1.476 -3.47,-2.487 -3.642,-3.652 l 0,0 c -0.119,-0.802 -0.131,-2.555 -0.04,-4.017 l 0,0 c 10.88,1.086 24.033,1.719 37.846,1.719 l 0,0 0,0.006 0.002,0 0,-0.006 c 17.787,0 34.481,-1.05 46.633,-2.765 l 0,0 c -0.575,0.794 -1.063,1.541 -1.244,1.856 l 0,0 c -0.486,0.848 -1.307,2.08 -2.569,3.524 l 0,0 c -1.259,1.445 -2.307,2.061 -3.74,2.341 l 0,0 c -1.431,0.282 -2.563,0.993 -4.382,2.205 l 0,0 c -1.821,1.211 -5.051,3.064 -6.273,3.782 l 0,0 c -1.22,0.719 -2.896,2.734 -6.144,5.582 l 0,0 c -3.251,2.849 -5.164,4.067 -5.164,4.067 l 0,0 c -0.004,0.007 -0.012,0.013 -0.017,0.018 l 0,0 c -1.881,-1.279 -4.139,-2.486 -6.606,-2.946 l 0,0 C 97.835,64.696 93.378,64.883 90.265,67.09 l 0,0 c -2.132,1.213 -4.778,4.469 -5.607,5.464 l 0,0 c -0.843,1.008 -1.737,1.385 -2.385,1.385 l 0,0 c -0.034,0 -0.067,-10e-4 -0.1,-0.003 m 44.813,-12.143 c 0,0 0.601,-0.494 1.962,-1.764 l 0,0 c 1.366,-1.272 4.328,-3.015 6.301,-4.689 l 0,0 c 1.969,-1.675 2.641,-2.445 3.554,-3.684 l 0,0 c 0.911,-1.238 5.051,-6.427 5.712,-7.378 l 0,0 c 0.013,-0.02 0.028,-0.04 0.042,-0.062 l 0,0 c 4.327,-0.034 6.252,2.826 6.457,7.495 l 0,0 c -0.013,0.057 -0.023,0.119 -0.029,0.186 l 0,0 c -0.066,0.696 -0.513,1.302 -0.937,1.849 l 0,0 -0.025,0.02 c -1.1,1.162 -5.401,4.536 -6.338,5.414 l 0,0 c -0.938,0.881 -1.744,1.026 -2.721,1.367 l 0,0 c -2.154,0.33 -6.022,0.865 -8.908,1.072 l 0,0 c -1.68,0.121 -3.815,0.346 -5.359,0.448 l 0,0 c 0.05,-0.045 0.183,-0.182 0.289,-0.274"
           inkscape:connector-curvature="0"
           id="path42"
           style="fill:url(#radialGradient3377);stroke:none" /></g></g></g></g><g
   id="g44"><g
     clip-path="url(#clipPath48)"
     id="g46"><g
       id="g52"><g
         id="g54" /><g
         id="g70"><g
           clip-path="url(#clipPath56)"
           id="g72"
           style="opacity:0.35000604"><g
             id="g74"><g
               clip-path="url(#clipPath60)"
               id="g76"><g
                 id="g78"><g
                   id="g80"><path
                     d="m 228.204,59.156 c 0,44.633 -33.137,80.815 -74.012,80.815 -40.873,0 -74.007,-36.182 -74.007,-80.815 0,-44.631 33.134,-80.813 74.007,-80.813 40.875,0 74.012,36.182 74.012,80.813"
                     inkscape:connector-curvature="0"
                     id="path82"
                     style="fill:url(#linearGradient3379);stroke:none" /></g></g></g></g></g></g></g><g
       id="g84"><g
         id="g86" /><g
         id="g102"><g
           clip-path="url(#clipPath88)"
           id="g104"
           style="opacity:0.25999505"><g
             id="g106"><g
               clip-path="url(#clipPath92)"
               id="g108"><g
                 id="g110"><g
                   id="g112"><path
                     d="m 220.706,22.222 c 0,-27.763 -59.246,-50.266 -132.33,-50.266 -73.084,0 -132.33,22.503 -132.33,50.266 0,27.76 59.246,50.264 132.33,50.264 73.084,0 132.33,-22.504 132.33,-50.264"
                     inkscape:connector-curvature="0"
                     id="path114"
                     style="fill:url(#radialGradient3381);stroke:none" /></g></g></g></g></g></g></g><g
       id="g116"><g
         id="g118" /><g
         id="g134"><g
           clip-path="url(#clipPath120)"
           id="g136"
           style="opacity:0.25999505"><g
             id="g138"><g
               clip-path="url(#clipPath124)"
               id="g140"><g
                 id="g142"><g
                   id="g144"><path
                     d="m 76.019,105.534 c 0,-15.182 -18.465,-27.493 -41.241,-27.493 -22.777,0 -41.242,12.311 -41.242,27.493 0,15.185 18.465,27.494 41.242,27.494 22.776,0 41.241,-12.309 41.241,-27.494"
                     inkscape:connector-curvature="0"
                     id="path146"
                     style="fill:url(#radialGradient3383);stroke:none" /></g></g></g></g></g></g></g><g
       id="g148"><g
         id="g150" /><g
         id="g166"><g
           clip-path="url(#clipPath152)"
           id="g168"
           style="opacity:0.32000703"><g
             id="g170"><g
               clip-path="url(#clipPath156)"
               id="g172"><g
                 id="g174"><g
                   id="g176"><path
                     d="m 65.743,66.377 c 0,-37.731 -21.883,-68.316 -48.877,-68.316 -26.994,0 -48.879,30.585 -48.879,68.316 0,37.731 21.885,68.318 48.879,68.318 26.994,0 48.877,-30.587 48.877,-68.318"
                     inkscape:connector-curvature="0"
                     id="path178"
                     style="fill:url(#linearGradient3385);stroke:none" /></g></g></g></g></g></g></g><g
       id="g180"><g
         id="g182" /><g
         id="g220"><g
           clip-path="url(#clipPath184)"
           id="g222"
           style="opacity:0.53999299"><g
             id="g224"><g
               clip-path="url(#clipPath188)"
               id="g226"><g
                 id="g228"><g
                   id="g230" /><g
                   mask="url(#mask202)"
                   id="g232"><g
                     id="g234"><path
                       d="M 208.958,101.729 C 205.985,84.342 166.687,76.553 121.181,84.33 c -45.506,7.777 -79.987,28.176 -77.016,45.563 2.971,17.385 42.27,25.175 87.777,17.398 45.506,-7.777 79.987,-28.178 77.016,-45.562"
                       inkscape:connector-curvature="0"
                       id="path236"
                       style="fill:url(#linearGradient3387);stroke:none" /></g></g></g></g></g></g></g></g><g
       id="g238"><g
         id="g240" /><g
         id="g256"><g
           clip-path="url(#clipPath242)"
           id="g258"
           style="opacity:0.25"><g
             id="g260"><g
               clip-path="url(#clipPath246)"
               id="g262"><g
                 id="g264"><g
                   id="g266"><path
                     d="m 60.124,4.129 c 0,-32.518 31.107,-58.875 69.48,-58.875 38.374,0 69.481,26.357 69.481,58.875 0,32.515 -31.107,58.873 -69.481,58.873 -38.373,0 -69.48,-26.358 -69.48,-58.873"
                     inkscape:connector-curvature="0"
                     id="path268"
                     style="fill:url(#linearGradient3389);stroke:none" /></g></g></g></g></g></g></g><g
       id="g270"><g
         id="g272" /><g
         id="g288"><g
           clip-path="url(#clipPath274)"
           id="g290"
           style="opacity:0.36000103"><g
             id="g292"><g
               clip-path="url(#clipPath278)"
               id="g294"><g
                 id="g296"><g
                   id="g298"><path
                     d="m 188.214,65.822 c 0,-27.915 -16.289,-50.543 -36.381,-50.543 -20.092,0 -36.381,22.628 -36.381,50.543 0,27.914 16.289,50.543 36.381,50.543 20.092,0 36.381,-22.629 36.381,-50.543"
                     inkscape:connector-curvature="0"
                     id="path300"
                     style="fill:url(#linearGradient3391);stroke:none" /></g></g></g></g></g></g></g><g
       id="g302"><g
         id="g304" /><g
         id="g322"><g
           clip-path="url(#clipPath306)"
           id="g324"
           style="opacity:0.38999903"><g
             id="g326"><g
               clip-path="url(#clipPath310)"
               id="g328"><g
                 id="g330"><g
                   id="g332"><path
                     d="m 128.544,20.98 c 0,-23.005 -30.275,-41.657 -67.623,-41.657 -37.348,0 -67.621,18.652 -67.621,41.657 0,23.006 30.273,41.657 67.621,41.657 37.348,0 67.623,-18.651 67.623,-41.657"
                     inkscape:connector-curvature="0"
                     id="path334"
                     style="fill:url(#linearGradient3393);stroke:none" /></g></g></g></g></g></g></g></g></g>
</g></svg>